<svg width="32" height="33" viewBox="0 0 32 33" fill="none" xmlns="http://www.w3.org/2000/svg">
<path d="M31.5 2.50781C31.5 1.59375 30.6562 0.75 29.7422 0.75H1.6875C0.773438 0.75 0 1.59375 0 2.50781V30.5625C0 31.4766 0.773438 32.25 1.6875 32.25H16.8047V20.0859H12.6562V15.3047H16.8047V11.7891C16.8047 7.78125 19.2656 5.53125 22.9219 5.53125C24.6094 5.53125 26.1562 5.67188 26.5781 5.74219V9.96094H24.0469C22.0781 9.96094 21.7266 10.9453 21.7266 12.2812V15.3047H26.4375L25.8047 20.0859H21.7266V32.25H29.7422C30.6562 32.25 31.5 31.4766 31.5 30.5625V2.50781Z" fill="#3B5998"/>
</svg>
