<svg width="45" height="27" viewBox="0 0 45 27" fill="none" xmlns="http://www.w3.org/2000/svg">
<path d="M27.1406 11.6016H14.3438V16.2422H22.0078C21.7266 18.2109 19.6875 22.0781 14.3438 22.0781C9.77344 22.0781 5.97656 18.2812 5.97656 13.5C5.97656 8.78906 9.77344 4.99219 14.3438 4.99219C17.0156 4.99219 18.7734 6.11719 19.7578 7.10156L23.4141 3.58594C21.0234 1.33594 18 0 14.3438 0C6.89062 0 0.84375 6.04688 0.84375 13.5C0.84375 21.0234 6.89062 27 14.3438 27C22.1484 27 27.3516 21.5859 27.3516 13.8516C27.3516 12.9375 27.2109 12.3047 27.1406 11.6016ZM40.1484 12.0234V8.15625H36.2109V12.0234H32.2734V15.9609H36.2109V19.8984H40.1484V15.9609H44.0859V12.0234H40.1484Z" fill="#DD4B39"/>
</svg>
